<svg width="24" height="24" viewBox="0 0 24 24" fill="none" xmlns="http://www.w3.org/2000/svg">
  <!-- Official GitHub icon -->
  <path d="M12 0C5.373 0 0 5.373 0 12c0 5.304 3.438 9.8 8.205 11.387.6.113.82-.258.82-.577 0-.286-.01-1.042-.015-2.047-3.338.725-4.042-1.61-4.042-1.61-.546-1.387-1.333-1.757-1.333-1.757-1.091-.746.083-.731.083-.731 1.205.085 1.838 1.236 1.838 1.236 1.07 1.835 2.809 1.305 3.495.998.108-.775.42-1.305.763-1.604-2.665-.304-5.466-1.332-5.466-5.931 0-1.31.468-2.381 1.236-3.221-.124-.303-.536-1.524.117-3.176 0 0 1.008-.322 3.301 1.23a11.478 11.478 0 013.004-.404 11.44 11.44 0 013.004.404c2.291-1.552 3.297-1.23 3.297-1.23.656 1.653.244 2.874.12 3.176.77.84 1.234 1.912 1.912 3.221 0 4.609-2.804 5.625-5.475 5.921.431.37.815 1.102.815 2.222 0 1.606-.015 2.902-.015 3.293 0 .322.216.694.825.576C20.565 21.796 24 17.301 24 12 24 5.373 18.627 0 12 0z" fill="#181717"/>
</svg> 