<svg width="48" height="48" viewBox="0 0 48 48" fill="none" xmlns="http://www.w3.org/2000/svg">
  <path d="M20 28L28 20M28 20H22M28 20V26" stroke="#3B82F6" stroke-width="3" stroke-linecap="round" stroke-linejoin="round"/>
  <path d="M32 14H36C37.1046 14 38 14.8954 38 16V32C38 33.1046 37.1046 34 36 34H20C18.8954 34 18 33.1046 18 32V28" stroke="#3B82F6" stroke-width="3" stroke-linecap="round"/>
  <path d="M10 20C10 15.5817 13.5817 12 18 12H24V16H18C15.7909 16 14 17.7909 14 20V30C14 32.2091 15.7909 34 18 34H28C30.2091 34 32 32.2091 32 30V24H36V30C36 34.4183 32.4183 38 28 38H18C13.5817 38 10 34.4183 10 30V20Z" fill="#3B82F6"/>
</svg> 