<svg width="24" height="24" viewBox="0 0 24 24" fill="none" xmlns="http://www.w3.org/2000/svg">
  <!-- White background -->
  <rect x="0" y="0" width="24" height="24" rx="3" ry="3" fill="white"/>
  <!-- Official LinkedIn icon (FaLinkedin from react-icons) -->
  <g transform="translate(2, 2) scale(0.83)">
    <path d="M20.4475 20.4515H16.8935V14.883C16.8935 13.555 16.8665 11.846 15.0415 11.846C13.1885 11.846 12.9055 13.291 12.9055 14.785V20.4515H9.351V9H12.765V10.561H12.811C13.288 9.661 14.448 8.711 16.181 8.711C19.782 8.711 20.448 11.081 20.448 14.166L20.4475 20.4515ZM5.3375 7.433C4.1935 7.433 3.2745 6.507 3.2745 5.368C3.2745 4.23 4.1945 3.305 5.3375 3.305C6.4775 3.305 7.4015 4.23 7.4015 5.368C7.4015 6.507 6.4765 7.433 5.3375 7.433ZM7.119 20.452H3.555V9H7.119V20.452ZM22.2245 0H1.7715C0.7925 0 0 0.774 0 1.729V22.271C0 23.227 0.792 24 1.771 24H22.222C23.199 24 24 23.227 24 22.271V1.729C24 0.774 23.2 0 22.222 0H22.2245Z" fill="#0A66C2"/>
  </g>
</svg> 