<svg width="48" height="48" viewBox="0 0 48 48" fill="none" xmlns="http://www.w3.org/2000/svg">
  <path d="M18 6H30C31.1046 6 32 6.89543 32 8V10H34C35.1046 10 36 10.8954 36 12V40C36 41.1046 35.1046 42 34 42H14C12.8954 42 12 41.1046 12 40V12C12 10.8954 12.8954 10 14 10H16V8C16 6.89543 16.8954 6 18 6Z" fill="#E5E7EB"/>
  <path d="M18 6H30C31.1046 6 32 6.89543 32 8V12C32 13.1046 31.1046 14 30 14H18C16.8954 14 16 13.1046 16 12V8C16 6.89543 16.8954 6 18 6Z" fill="#3B82F6"/>
  <path d="M18 20H30M18 24H30M18 28H26" stroke="#6B7280" stroke-width="2" stroke-linecap="round"/>
</svg> 