<svg width="48" height="48" viewBox="0 0 48 48" fill="none" xmlns="http://www.w3.org/2000/svg">
  <path d="M24 30C27.3137 30 30 27.3137 30 24C30 20.6863 27.3137 18 24 18C20.6863 18 18 20.6863 18 24C18 27.3137 20.6863 30 24 30Z" fill="#6B7280"/>
  <path d="M39.9 22.8L36.8 21.6C36.6 20.7 36.3 19.8 35.9 19L37.6 16.3C37.8 16 37.8 15.6 37.5 15.3L32.7 10.5C32.4 10.2 32 10.2 31.7 10.4L29 12.1C28.2 11.7 27.3 11.4 26.4 11.2L25.2 8.1C25.1 7.7 24.7 7.5 24.3 7.5H17.7C17.3 7.5 16.9 7.7 16.8 8.1L15.6 11.2C14.7 11.4 13.8 11.7 13 12.1L10.3 10.4C10 10.2 9.6 10.2 9.3 10.5L4.5 15.3C4.2 15.6 4.2 16 4.4 16.3L6.1 19C5.7 19.8 5.4 20.7 5.2 21.6L2.1 22.8C1.7 22.9 1.5 23.3 1.5 23.7V30.3C1.5 30.7 1.7 31.1 2.1 31.2L5.2 32.4C5.4 33.3 5.7 34.2 6.1 35L4.4 37.7C4.2 38 4.2 38.4 4.5 38.7L9.3 43.5C9.6 43.8 10 43.8 10.3 43.6L13 41.9C13.8 42.3 14.7 42.6 15.6 42.8L16.8 45.9C16.9 46.3 17.3 46.5 17.7 46.5H24.3C24.7 46.5 25.1 46.3 25.2 45.9L26.4 42.8C27.3 42.6 28.2 42.3 29 41.9L31.7 43.6C32 43.8 32.4 43.8 32.7 43.5L37.5 38.7C37.8 38.4 37.8 38 37.6 37.7L35.9 35C36.3 34.2 36.6 33.3 36.8 32.4L39.9 31.2C40.3 31.1 40.5 30.7 40.5 30.3V23.7C40.5 23.3 40.3 22.9 39.9 22.8Z" fill="#9CA3AF"/>
</svg> 