<svg xmlns="http://www.w3.org/2000/svg" width="1104" height="1551" viewBox="0 0 1104 1551" version="1.1"><path d="M 733.495 553 C 733.495 762.825, 733.610 848.663, 733.750 743.750 C 733.890 638.838, 733.890 467.163, 733.750 362.250 C 733.610 257.338, 733.495 343.175, 733.495 553" stroke="none" fill="#e4443c" fill-rule="evenodd"/><path d="M 606.891 137.442 C 606.615 137.718, 598.764 138.182, 589.444 138.473 C 569.541 139.094, 561.340 139.697, 554.500 141.042 C 551.750 141.583, 547.734 142.274, 545.577 142.578 C 541.168 143.199, 527.932 147.474, 523.776 149.619 C 519.214 151.973, 512.484 159.253, 510.693 163.770 C 509.113 167.756, 509 193.291, 509 547.020 C 509 849.529, 509.252 926.003, 510.250 926.015 C 511.230 926.027, 511.235 926.199, 510.273 926.810 C 509.467 927.322, 509.058 930.318, 509.080 935.545 C 509.098 939.920, 508.862 945.216, 508.555 947.312 C 508.248 949.409, 508.492 952.051, 509.098 953.183 C 509.933 954.743, 509.913 955.064, 509.013 954.508 C 508.207 954.010, 507.907 954.531, 508.077 956.138 C 508.214 957.437, 508.003 960.975, 507.607 964 C 507.212 967.025, 506.734 971.075, 506.545 973 C 506.357 974.925, 505.855 977.361, 505.431 978.414 C 504.829 979.908, 504.972 980.140, 506.080 979.472 C 507.207 978.793, 507.266 978.914, 506.365 980.058 C 505.741 980.851, 504.963 982.850, 504.636 984.500 C 504.309 986.150, 503.821 988.625, 503.553 990 C 503.284 991.375, 502.585 994.300, 502 996.500 C 500.192 1003.295, 499.721 1005.437, 499.645 1007.202 C 499.604 1008.139, 499.359 1008.693, 499.100 1008.433 C 498.573 1007.907, 493.826 1018.793, 493.729 1020.750 C 493.695 1021.438, 493.265 1022, 492.774 1022 C 492.284 1022, 492.137 1022.412, 492.448 1022.915 C 492.759 1023.419, 491.853 1025.210, 490.435 1026.895 C 489.017 1028.580, 488.147 1030.429, 488.503 1031.004 C 488.858 1031.579, 488.623 1031.926, 487.981 1031.775 C 487.339 1031.624, 486.293 1032.381, 485.657 1033.458 C 485.021 1034.535, 483.947 1036.019, 483.272 1036.757 C 482.597 1037.495, 481.697 1038.647, 481.272 1039.316 C 480.847 1039.986, 478.925 1041.836, 477 1043.428 C 475.075 1045.020, 473.613 1046.700, 473.750 1047.161 C 473.888 1047.622, 473.185 1048, 472.189 1048 C 471.192 1048, 469.440 1048.873, 468.295 1049.940 C 467.150 1051.007, 465.940 1051.607, 465.606 1051.273 C 465.273 1050.940, 465 1051.218, 465 1051.892 C 465 1052.566, 464.586 1052.862, 464.081 1052.550 C 463.575 1052.237, 462.504 1052.639, 461.700 1053.443 C 460.896 1054.247, 459.974 1054.640, 459.650 1054.317 C 459.327 1053.994, 457.923 1054.475, 456.531 1055.388 C 455.139 1056.300, 454 1056.868, 454 1056.651 C 454 1056.434, 450.512 1057.102, 446.250 1058.134 C 435.715 1060.687, 430.756 1061.149, 415 1061.047 C 400.058 1060.949, 395.928 1060.692, 394.426 1059.763 C 393.870 1059.420, 391.409 1058.853, 388.957 1058.505 C 382.964 1057.652, 381.791 1057.402, 379.798 1056.550 C 378.862 1056.150, 377.663 1056.090, 377.133 1056.418 C 376.604 1056.745, 376.012 1056.535, 375.817 1055.952 C 375.623 1055.368, 374.572 1054.725, 373.482 1054.522 C 372.392 1054.319, 371.387 1054.062, 371.250 1053.952 C 371.113 1053.841, 370.663 1053.678, 370.250 1053.590 C 369.837 1053.501, 368.452 1052.848, 367.172 1052.138 C 365.891 1051.427, 364.241 1051.077, 363.505 1051.360 C 362.768 1051.642, 361.906 1051.199, 361.590 1050.373 C 361.273 1049.548, 360.639 1049.105, 360.181 1049.388 C 359.722 1049.672, 357.244 1048.839, 354.673 1047.538 C 352.103 1046.236, 350 1045.428, 350 1045.741 C 350 1046.054, 349.213 1045.658, 348.250 1044.862 C 347.288 1044.065, 345.150 1042.818, 343.500 1042.090 C 341.850 1041.362, 339.719 1040.369, 338.764 1039.883 C 337.809 1039.397, 336.346 1039, 335.514 1039 C 334.681 1039, 334 1038.523, 334 1037.941 C 334 1037.359, 333.550 1037.160, 333 1037.500 C 332.450 1037.840, 332 1037.566, 332 1036.892 C 332 1036.218, 331.743 1035.924, 331.428 1036.238 C 331.114 1036.553, 328.279 1035.353, 325.129 1033.573 C 316.833 1028.884, 313.879 1028.086, 305.763 1028.342 C 298.335 1028.576, 292.287 1031.037, 293.663 1033.264 C 294.031 1033.860, 293.829 1034.012, 293.192 1033.619 C 291.724 1032.712, 286.562 1040.482, 287.560 1042.097 C 288.071 1042.924, 287.888 1043.049, 286.985 1042.490 C 286.023 1041.896, 285.835 1042.128, 286.299 1043.336 C 286.650 1044.252, 286.454 1045, 285.862 1045 C 285.270 1045, 285.045 1045.675, 285.362 1046.500 C 285.678 1047.325, 285.493 1048, 284.949 1048 C 284.406 1048, 284.165 1049.125, 284.414 1050.500 C 284.664 1051.875, 284.421 1053, 283.875 1053 C 283.329 1053, 283.139 1053.416, 283.454 1053.925 C 283.768 1054.434, 283.483 1056.041, 282.820 1057.497 C 281.874 1059.573, 281.878 1060.307, 282.841 1060.902 C 283.516 1061.319, 283.780 1062.409, 283.429 1063.324 C 283.078 1064.240, 282.388 1064.740, 281.895 1064.435 C 281.403 1064.131, 281 1065.259, 281 1066.941 C 281 1068.623, 281.416 1070, 281.923 1070 C 282.431 1070, 282.209 1071.279, 281.429 1072.842 C 280.414 1074.876, 280.107 1078.432, 280.349 1085.342 C 280.535 1090.654, 280.318 1095, 279.867 1095 C 278.811 1095, 279.413 1138.242, 280.494 1139.990 C 281.070 1140.923, 280.925 1141.071, 279.997 1140.498 C 278.924 1139.835, 278.821 1142.141, 279.434 1153.093 C 279.846 1160.467, 280.126 1168.376, 280.057 1170.670 C 279.988 1172.963, 280.382 1175.118, 280.933 1175.458 C 281.484 1175.799, 281.679 1177.356, 281.367 1178.917 C 281.054 1180.479, 281.252 1182.037, 281.805 1182.380 C 282.359 1182.722, 282.559 1183.972, 282.249 1185.157 C 281.844 1186.706, 282.034 1187.097, 282.924 1186.547 C 283.756 1186.033, 284.098 1186.391, 283.966 1187.641 C 283.565 1191.435, 284.029 1194.100, 284.989 1193.507 C 285.555 1193.157, 285.723 1193.558, 285.382 1194.448 C 285.054 1195.302, 285.284 1196, 285.893 1196 C 286.502 1196, 287 1196.477, 287 1197.059 C 287 1197.641, 286.555 1197.843, 286.011 1197.507 C 285.445 1197.157, 285.276 1197.557, 285.616 1198.442 C 285.943 1199.293, 286.689 1199.692, 287.275 1199.330 C 287.932 1198.924, 288.107 1199.278, 287.733 1200.253 C 287.377 1201.180, 287.747 1202.073, 288.627 1202.410 C 289.452 1202.727, 289.856 1203.423, 289.526 1203.958 C 288.734 1205.240, 293.981 1213.130, 295.147 1212.409 C 295.643 1212.102, 295.967 1212.222, 295.866 1212.676 C 294.980 1216.657, 306.773 1224.845, 321.573 1230.525 C 325.383 1231.987, 329.400 1233.606, 330.500 1234.123 C 335.297 1236.376, 357.343 1242.805, 358.607 1242.320 C 359.373 1242.027, 360 1242.234, 360 1242.782 C 360 1243.329, 361.462 1244.054, 363.250 1244.393 C 366.715 1245.048, 368.025 1245.343, 374.835 1246.996 C 377.220 1247.575, 379.695 1247.959, 380.335 1247.849 C 380.976 1247.739, 383.300 1248.159, 385.500 1248.781 C 387.700 1249.403, 391.075 1250.177, 393 1250.500 C 394.925 1250.824, 397.843 1251.318, 399.484 1251.600 C 402.813 1252.170, 408.978 1252.881, 416.500 1253.561 C 419.250 1253.810, 423.750 1254.235, 426.500 1254.505 C 438.639 1255.697, 484.320 1254.977, 494 1253.440 C 495.925 1253.134, 499.637 1252.822, 502.250 1252.746 C 504.863 1252.670, 507 1252.319, 507 1251.965 C 507 1251.611, 508.462 1251.294, 510.250 1251.261 C 515.756 1251.159, 518.440 1250.691, 519.942 1249.573 C 521.067 1248.736, 521.198 1248.809, 520.537 1249.905 C 519.907 1250.951, 520.049 1251.086, 521.095 1250.434 C 521.868 1249.953, 523.400 1249.487, 524.500 1249.400 C 525.600 1249.312, 531.450 1248.222, 537.500 1246.978 C 543.550 1245.734, 549.043 1244.705, 549.706 1244.691 C 550.369 1244.678, 550.656 1244.253, 550.344 1243.747 C 550.031 1243.241, 550.838 1242.962, 552.138 1243.126 C 555.271 1243.521, 564.109 1240.986, 563.430 1239.887 C 563.136 1239.412, 563.594 1239.291, 564.448 1239.618 C 565.302 1239.946, 566 1239.778, 566 1239.246 C 566 1238.713, 567.192 1238.505, 568.649 1238.784 C 570.645 1239.165, 571.099 1238.970, 570.494 1237.990 C 569.984 1237.165, 570.085 1236.935, 570.771 1237.359 C 571.904 1238.059, 578.383 1236.120, 586 1232.802 C 596.363 1228.288, 603.989 1224.452, 603.994 1223.750 C 603.997 1223.338, 604.900 1223, 606 1223 C 607.100 1223, 608 1222.523, 608 1221.941 C 608 1221.359, 608.412 1221.137, 608.915 1221.448 C 609.419 1221.759, 611.171 1220.885, 612.810 1219.507 C 614.448 1218.128, 616.511 1217, 617.394 1217 C 618.277 1217, 619 1216.550, 619 1216 C 619 1215.450, 619.675 1215, 620.500 1215 C 621.325 1215, 622 1214.639, 622 1214.198 C 622 1213.757, 624.698 1211.845, 627.997 1209.948 C 631.320 1208.037, 633.794 1205.966, 633.547 1205.301 C 633.294 1204.619, 633.679 1204.323, 634.441 1204.616 C 635.177 1204.898, 636.934 1203.975, 638.344 1202.565 C 639.755 1201.154, 641.222 1200, 641.604 1200 C 641.985 1200, 643.806 1198.447, 645.649 1196.550 C 647.492 1194.652, 649 1193.386, 649 1193.737 C 649 1194.087, 650.334 1193.096, 651.964 1191.534 C 653.595 1189.972, 654.693 1188.313, 654.405 1187.847 C 654.118 1187.381, 654.422 1187, 655.083 1187 C 656.374 1187, 662.524 1181.010, 661.259 1180.985 C 660.841 1180.977, 661.575 1180.415, 662.888 1179.735 C 664.201 1179.056, 665.232 1178.180, 665.179 1177.789 C 665.125 1177.398, 666.751 1175.275, 668.791 1173.071 C 674.143 1167.289, 675 1166.195, 675 1165.149 C 675 1164.635, 675.675 1163.955, 676.500 1163.638 C 677.325 1163.322, 678.008 1162.486, 678.017 1161.781 C 678.027 1161.077, 679.152 1159.440, 680.517 1158.145 C 681.883 1156.850, 683 1155.162, 683 1154.395 C 683 1153.628, 683.480 1153, 684.067 1153 C 684.701 1153, 684.860 1152.136, 684.460 1150.875 C 684.089 1149.706, 684.171 1148.984, 684.643 1149.270 C 685.570 1149.833, 688.169 1147.502, 687.434 1146.767 C 687.188 1146.522, 687.890 1145.504, 688.994 1144.506 C 690.097 1143.507, 691 1142.301, 691 1141.825 C 691 1141.349, 692.131 1139.169, 693.513 1136.980 C 694.894 1134.791, 695.682 1132.993, 695.263 1132.985 C 694.843 1132.976, 695.026 1132.635, 695.670 1132.225 C 696.313 1131.816, 696.988 1130.821, 697.170 1130.014 C 697.351 1129.208, 698.036 1127.969, 698.690 1127.262 C 699.345 1126.555, 699.706 1125.070, 699.493 1123.962 C 699.279 1122.853, 699.508 1122.196, 700.002 1122.501 C 700.496 1122.806, 701.388 1122.143, 701.985 1121.028 C 702.582 1119.913, 702.774 1119, 702.413 1119 C 702.051 1119, 702.209 1118.438, 702.765 1117.750 C 704.062 1116.145, 709.333 1102.906, 709.333 1101.255 C 709.333 1100.565, 709.756 1100, 710.274 1100 C 710.791 1100, 710.966 1099.354, 710.663 1098.565 C 710.360 1097.775, 710.556 1096.981, 711.098 1096.801 C 711.640 1096.620, 712.212 1095.353, 712.369 1093.986 C 712.526 1092.619, 712.992 1090.748, 713.405 1089.828 C 713.817 1088.909, 714.275 1087.559, 714.423 1086.828 C 714.571 1086.098, 715.215 1084.225, 715.853 1082.666 C 716.492 1081.107, 716.779 1079.451, 716.491 1078.985 C 716.203 1078.519, 716.455 1077.837, 717.052 1077.468 C 717.648 1077.099, 717.895 1076.168, 717.600 1075.399 C 717.304 1074.629, 717.448 1074, 717.918 1074 C 718.599 1074, 719.829 1068.703, 720.180 1064.259 C 720.213 1063.842, 720.653 1062.412, 721.159 1061.083 C 721.813 1059.362, 721.706 1058.430, 720.789 1057.848 C 719.836 1057.244, 719.955 1057.027, 721.244 1057.015 C 722.491 1057.004, 722.883 1056.360, 722.619 1054.750 C 722.417 1053.513, 722.633 1052.018, 723.100 1051.429 C 723.567 1050.839, 724.238 1047.689, 724.592 1044.429 C 725.434 1036.674, 725.583 1035.827, 726.475 1033.733 C 726.888 1032.762, 727.016 1030.863, 726.758 1029.514 C 726.500 1028.164, 726.647 1027.282, 727.084 1027.552 C 727.521 1027.822, 727.840 1027.246, 727.793 1026.272 C 727.745 1025.297, 728.058 1022.025, 728.489 1019 C 728.919 1015.975, 729.371 1011.576, 729.493 1009.226 C 729.616 1006.875, 730.001 1004.666, 730.349 1004.318 C 730.698 1003.969, 730.424 1002.994, 729.741 1002.150 C 728.751 1000.926, 728.753 1000.768, 729.750 1001.367 C 730.672 1001.921, 731.004 1000.988, 731.014 997.809 C 731.021 995.439, 731.317 992.417, 731.671 991.094 C 732.179 989.196, 732.017 988.867, 730.908 989.536 C 729.796 990.206, 729.736 990.081, 730.624 988.942 C 732.089 987.061, 733.022 977, 731.731 977 C 731.187 977, 731.271 976.379, 731.920 975.596 C 732.561 974.824, 733.016 971.561, 732.931 968.346 C 732.845 965.131, 732.837 962.050, 732.913 961.500 C 732.989 960.950, 733.033 781.550, 733.012 562.834 C 732.973 158.784, 732.953 156.380, 729.683 159.650 C 729.307 160.026, 729 159.804, 729 159.158 C 729 155.824, 717.788 147.940, 711.190 146.635 C 710.261 146.451, 708.825 146.027, 708 145.693 C 703.460 143.853, 692.847 141.844, 687.797 141.868 C 684.609 141.883, 682 141.462, 682 140.932 C 682 140.402, 680.763 139.979, 679.250 139.992 C 677.737 140.005, 674.025 139.734, 671 139.390 C 667.975 139.046, 659.314 138.705, 651.753 138.632 C 644.193 138.560, 638.005 138.222, 638.003 137.882 C 637.999 137.146, 607.617 136.716, 606.891 137.442" stroke="none" fill="#e44c3c" fill-rule="evenodd"/></svg>